<svg version="1.1" id="Layer_1" xmlns="http://www.w3.org/2000/svg" xmlns:xlink="http://www.w3.org/1999/xlink" x="0px" y="0px"
	 width="100%" viewBox="0 0 512 512" enable-background="new 0 0 512 512" xml:space="preserve">
<path fill="#FFFFFF" opacity="1.000000" stroke="none" 
	d="
M0.999999,249.000000 
	C1.000000,166.368896 1.000000,83.737808 1.000000,1.053355 
	C171.557648,1.053355 342.115295,1.053355 513.000000,1.053355 
	C513.000000,83.688393 513.000000,166.377213 512.651733,249.439423 
	C511.554596,248.393234 510.971497,246.851959 510.031952,245.572449 
	C497.153534,228.034302 483.012543,211.598541 467.160004,196.662796 
	C460.538055,190.423843 454.427551,183.531906 447.261108,178.004395 
	C433.193054,167.153580 419.068756,156.208176 403.987610,146.887939 
	C390.392670,138.486176 375.704834,131.725449 361.105591,125.109070 
	C343.654480,117.200218 325.324951,111.681343 306.340485,108.774574 
	C293.963837,106.879547 281.536469,104.859108 269.061554,104.173149 
	C251.953659,103.232437 234.774994,103.807625 217.862976,107.053932 
	C205.695526,109.389511 193.478210,111.697487 181.544830,114.971581 
	C157.272827,121.630905 134.572525,132.047195 112.952240,144.954117 
	C91.519447,157.749115 71.739265,172.665237 53.688076,189.866882 
	C46.549309,196.669693 39.510258,203.601135 32.796474,210.818802 
	C26.789549,217.276581 21.231014,224.157532 15.588502,230.946396 
	C10.643516,236.895981 5.856691,242.977020 0.999999,249.000000 
z"/>
<path fill="#FFFFFF" opacity="1.000000" stroke="none" 
	d="
M513.000000,265.000000 
	C513.000000,347.631073 513.000000,430.262115 513.000000,512.946594 
	C342.442474,512.946594 171.884903,512.946594 1.000000,512.946594 
	C1.000000,430.644928 1.000000,348.289459 1.343973,265.547546 
	C5.034178,269.537567 8.135978,274.129700 11.771848,278.250610 
	C23.324993,291.344940 34.897034,304.431488 46.800201,317.205688 
	C60.240402,331.629364 75.670921,343.768860 91.672043,355.237152 
	C110.594482,368.799164 130.808533,380.037750 152.276764,388.912415 
	C170.104324,396.282104 188.397491,402.398987 207.587723,405.201447 
	C219.979980,407.011139 232.391800,409.138062 244.866272,409.824097 
	C261.976715,410.765015 279.159760,410.202423 296.076782,406.949249 
	C308.247925,404.608734 320.481506,402.347687 332.412933,399.056854 
	C357.312347,392.189178 380.569580,381.430939 402.693146,368.079529 
	C422.647156,356.037415 441.122559,342.077576 458.152649,326.237732 
	C467.078888,317.935333 475.625793,309.203308 484.014465,300.352936 
	C489.050262,295.039948 493.488068,289.155304 498.127014,283.472351 
	C503.125854,277.348511 508.045685,271.160187 513.000000,265.000000 
z"/>
<path fill="#000000" opacity="1.000000" stroke="none" 
	d="
M513.000000,264.533875 
	C508.045685,271.160187 503.125854,277.348511 498.127014,283.472351 
	C493.488068,289.155304 489.050262,295.039948 484.014465,300.352936 
	C475.625793,309.203308 467.078888,317.935333 458.152649,326.237732 
	C441.122559,342.077576 422.647156,356.037415 402.693146,368.079529 
	C380.569580,381.430939 357.312347,392.189178 332.412933,399.056854 
	C320.481506,402.347687 308.247925,404.608734 296.076782,406.949249 
	C279.159760,410.202423 261.976715,410.765015 244.866272,409.824097 
	C232.391800,409.138062 219.979980,407.011139 207.587723,405.201447 
	C188.397491,402.398987 170.104324,396.282104 152.276764,388.912415 
	C130.808533,380.037750 110.594482,368.799164 91.672043,355.237152 
	C75.670921,343.768860 60.240402,331.629364 46.800201,317.205688 
	C34.897034,304.431488 23.324993,291.344940 11.771848,278.250610 
	C8.135978,274.129700 5.034178,269.537567 1.343973,265.080566 
	C1.000000,259.977905 1.000000,254.955811 0.999999,249.466858 
	C5.856691,242.977020 10.643516,236.895981 15.588502,230.946396 
	C21.231014,224.157532 26.789549,217.276581 32.796474,210.818802 
	C39.510258,203.601135 46.549309,196.669693 53.688076,189.866882 
	C71.739265,172.665237 91.519447,157.749115 112.952240,144.954117 
	C134.572525,132.047195 157.272827,121.630905 181.544830,114.971581 
	C193.478210,111.697487 205.695526,109.389511 217.862976,107.053932 
	C234.774994,103.807625 251.953659,103.232437 269.061554,104.173149 
	C281.536469,104.859108 293.963837,106.879547 306.340485,108.774574 
	C325.324951,111.681343 343.654480,117.200218 361.105591,125.109070 
	C375.704834,131.725449 390.392670,138.486176 403.987610,146.887939 
	C419.068756,156.208176 433.193054,167.153580 447.261108,178.004395 
	C454.427551,183.531906 460.538055,190.423843 467.160004,196.662796 
	C483.012543,211.598541 497.153534,228.034302 510.031952,245.572449 
	C510.971497,246.851959 511.554596,248.393234 512.651733,249.906403 
	C513.000000,254.689255 513.000000,259.378510 513.000000,264.533875 
M163.031174,205.657272 
	C149.713409,230.500320 146.208221,256.913544 153.255920,283.950592 
	C160.146347,310.384338 175.457687,331.900635 198.593323,346.693939 
	C222.226517,361.805359 248.130997,367.395416 276.225037,362.116699 
	C305.475128,356.620819 328.062714,341.246216 345.062317,317.338593 
	C357.887543,299.301697 364.335510,278.987885 363.867065,256.821167 
	C363.696198,248.735443 362.655212,240.537338 360.894287,232.639526 
	C354.606110,204.436844 338.759705,182.665909 314.630920,167.030930 
	C300.674835,157.987686 285.453278,152.595123 268.658813,150.766785 
	C253.879333,149.157761 239.680191,150.449173 225.698807,154.783661 
	C198.349106,163.262543 177.805206,180.349442 163.031174,205.657272 
z"/>
<path fill="#FFFFFF" opacity="1.000000" stroke="none" 
	d="
M163.246445,205.342850 
	C177.805206,180.349442 198.349106,163.262543 225.698807,154.783661 
	C239.680191,150.449173 253.879333,149.157761 268.658813,150.766785 
	C285.453278,152.595123 300.674835,157.987686 314.630920,167.030930 
	C338.759705,182.665909 354.606110,204.436844 360.894287,232.639526 
	C362.655212,240.537338 363.696198,248.735443 363.867065,256.821167 
	C364.335510,278.987885 357.887543,299.301697 345.062317,317.338593 
	C328.062714,341.246216 305.475128,356.620819 276.225037,362.116699 
	C248.130997,367.395416 222.226517,361.805359 198.593323,346.693939 
	C175.457687,331.900635 160.146347,310.384338 153.255920,283.950592 
	C146.208221,256.913544 149.713409,230.500320 163.246445,205.342850 
M301.030334,295.451355 
	C301.998260,294.155334 302.961792,292.856049 303.934753,291.563843 
	C315.525391,276.169952 317.541931,258.947510 313.208160,240.728180 
	C310.475281,229.239288 303.655914,220.219666 294.951447,212.388184 
	C280.966583,199.805878 264.157349,196.914581 246.551453,199.451218 
	C233.527939,201.327621 222.326233,208.098953 213.364288,218.106247 
	C201.011200,231.900192 196.969391,248.376709 199.276016,266.161285 
	C201.073288,280.018555 207.880112,291.723541 218.566788,301.152710 
	C232.406723,313.364044 248.797440,316.854919 266.330963,314.651428 
	C279.838745,312.953888 291.334442,306.231049 301.030334,295.451355 
z"/>
<path fill="#000000" opacity="1.000000" stroke="none" 
	d="
M300.785095,295.712952 
	C291.334442,306.231049 279.838745,312.953888 266.330963,314.651428 
	C248.797440,316.854919 232.406723,313.364044 218.566788,301.152710 
	C207.880112,291.723541 201.073288,280.018555 199.276016,266.161285 
	C196.969391,248.376709 201.011200,231.900192 213.364288,218.106247 
	C222.326233,208.098953 233.527939,201.327621 246.551453,199.451218 
	C264.157349,196.914581 280.966583,199.805878 294.951447,212.388184 
	C303.655914,220.219666 310.475281,229.239288 313.208160,240.728180 
	C317.541931,258.947510 315.525391,276.169952 303.934753,291.563843 
	C302.961792,292.856049 301.998260,294.155334 300.785095,295.712952 
z"/>
</svg>